PathFileType	4	(X/Y/Z)	/Users/visionmauri/Downloads/pro-gait-dataset/4_0_1_f_1_Sports2D/4_0_1_f_1_Sports2D_m_person00.trc
DataRate	CameraRate	NumFrames	NumMarkers	Units	OrigDataRate	OrigDataStartFrame	OrigNumFrames
30.0	30.0	7	22	m	30.0	81	654
Frame#	Time	Hip			RHip			RKnee			RAnkle			RBigToe			RSmallToe			RHeel			LHip			LKnee			LAnkle			LBigToe			LSmallToe			LHeel			Neck			Head			Nose			RShoulder			RElbow			RWrist			LShoulder			LElbow			LWrist			
		X1	Y1	Z1	X2	Y2	Z2	X3	Y3	Z3	X4	Y4	Z4	X5	Y5	Z5	X6	Y6	Z6	X7	Y7	Z7	X8	Y8	Z8	X9	Y9	Z9	X10	Y10	Z10	X11	Y11	Z11	X12	Y12	Z12	X13	Y13	Z13	X14	Y14	Z14	X15	Y15	Z15	X16	Y16	Z16	X17	Y17	Z17	X18	Y18	Z18	X19	Y19	Z19	X20	Y20	Z20	X21	Y21	Z21	X22	Y22	Z22
81	2.7041347626339967	1.3202999091277305	0.309911067461832	0.0301	1.3763176511902548	0.36706277774906904	0.0301	1.5773962469370935	0.15617523163440875	0.129	1.7907769222193062	-0.08714087102633498	0.023	1.8209722777632726	-0.1185165559484421	0.2179	1.8549759175701315	-0.10724654058051321	0.1804	1.8163489199129805	-0.1246085379175391	-0.0119	1.2614231225047967	0.26300621715559874	0.0301	1.4480731885407319	0.04464915290735382	0.129	1.5979494048310117	-0.1363071394569821	0.023	1.5289897186851487	-0.14653728312146694	0.2179	1.541775026018988	-0.1746889014586674	0.1804	1.6368469267976236	-0.16601814170621507	-0.0119	1.063384459712224	0.611985015173	0.0008	0.9640336433588386	0.7173837026211052	0.0655	0.9969537647618549	0.634929646522137	0.1076	1.185272414919853	0.6593006335767578	-0.01275	1.3990900647143758	0.5891053358111464	0.0702	1.505601833626165	0.4637141387649631	0.1076	0.9980562893618545	0.5030208032445963	-0.01275	1.0513265477969316	0.30243409482576256	0.0702	1.1394437484313409	0.1546470542081928	0.1076
82	2.7375191424196017	1.317395915199092	0.3076486902654036	0.0301	1.3732853962964338	0.3653948121833391	0.0301	1.573701982035101	0.1580417006428298	0.129	1.7855802840753086	-0.08096394948475273	0.023	1.8241655028775723	-0.1184212715362192	0.2179	1.8567471905100397	-0.10679517292886453	0.1804	1.8125900189459623	-0.11560857070153416	-0.0119	1.2617653426623399	0.2601324960458679	0.0301	1.4434535292459434	0.04368941627357642	0.129	1.597894403672768	-0.13711177064710298	0.023	1.5391968095730908	-0.15581497197530583	0.2179	1.5510074473039077	-0.1836878286829748	0.1804	1.6358024004750924	-0.16724099063661574	-0.0119	1.0559857955961023	0.6012966718441745	0.0008	0.9524670624576771	0.7028455227580003	0.0655	0.9869137381347233	0.6215840214730891	0.1076	1.1748711207437124	0.6509978791675147	-0.01275	1.3872390202739986	0.583718032907517	0.0702	1.4958099793116628	0.46580039088097813	0.1076	0.9960873871709693	0.4888339782598193	-0.01275	1.0516682018119323	0.29335594251630703	0.0702	1.143939396414682	0.14995072288146857	0.1076
83	2.7709035222052067	1.3136759782183214	0.30571827486028474	0.0301	1.3684615936020055	0.3641600665971464	0.0301	1.5681823687635943	0.16377526782993534	0.129	1.7757485738575998	-0.06883153150619824	0.023	1.825248137353537	-0.11316866274121681	0.2179	1.8553101407416763	-0.1011015449260337	0.1804	1.8059338086449082	-0.10288631175566276	-0.0119	1.2603690402075372	0.2590386959897701	0.0301	1.4384084570096511	0.044082144661347834	0.129	1.5972607097480052	-0.13854577472158203	0.023	1.5485039688395872	-0.16417422218632613	0.2179	1.5567686755391528	-0.19219515535045342	0.1804	1.6357030138295396	-0.1681617040770339	-0.0119	1.0484540405403941	0.5922833582415599	0.0008	0.9382650121791518	0.690409237165194	0.0655	0.9756844813477601	0.6087186185168485	0.1076	1.1652934628244112	0.6438211231061768	-0.01275	1.373277219062778	0.5799058951138101	0.0702	1.4818670108769052	0.47093102338861587	0.1076	0.9922253978295131	0.477731063199136	-0.01275	1.0524714825353105	0.28684692867879624	0.0702	1.1470043654194642	0.1460937460263078	0.1076
84	2.8042879019908113	1.3078260321295585	0.3057234346120212	0.0301	1.3613675641123406	0.36424471585998625	0.0301	1.5622044066265468	0.17064591446899208	0.129	1.7652177837066971	-0.05836544912228822	0.023	1.823041956794703	-0.10539595930516299	0.2179	1.8494077527526604	-0.09386559757150731	0.1804	1.796826431965529	-0.09262176007771554	-0.0119	1.255928377164657	0.2600503899840195	0.0301	1.4344399847176323	0.04525995894145716	0.129	1.5972279286268058	-0.13969349801113107	0.023	1.5534303381042986	-0.16920516874239794	0.2179	1.5588869400707703	-0.1971212848575741	0.1804	1.6359854680193373	-0.16871748506782835	-0.0119	1.0413445575029205	0.5858414499073918	0.0008	0.9260267788079155	0.6806782928041227	0.0655	0.9658719730898913	0.5994481386699124	0.1076	1.1570635880077136	0.639080719609971	-0.01275	1.3588990991149976	0.5789816854447069	0.0702	1.4672654160095733	0.475201121840198	0.1076	0.9866571497463152	0.47158694013201147	-0.01275	1.054178733543871	0.28233843060626385	0.0702	1.1492444142211766	0.1431534109493514	0.1076
85	2.8376722817764164	1.3001198698001366	0.3081303261373548	0.0301	1.3521737288866857	0.36636651142492493	0.0301	1.5564983049626215	0.17672620851087176	0.129	1.7546718183382986	-0.05369201491055222	0.023	1.8132461628504433	-0.09688161724563148	0.2179	1.836482085092172	-0.08721757941245299	0.1804	1.7837914510792514	-0.08835787665290011	-0.0119	1.2481143407702837	0.26242596357290277	0.0301	1.4316912377962663	0.04636825293467961	0.129	1.5974078907977367	-0.14012748785906387	0.023	1.5547370117601311	-0.17035470572479572	0.2179	1.5589224909513366	-0.19775247839423188	0.1804	1.6360457619282367	-0.16869266900687047	-0.0119	1.0341878438302257	0.5815986716628172	0.0008	0.918575397285326	0.6737846147846911	0.0655	0.9602381918096955	0.5957226750753756	0.1076	1.1486762640288486	0.6371414472614537	-0.01275	1.3450636289675084	0.5801235618656692	0.0702	1.4555865553645426	0.47637150905992737	0.1076	0.9800665478996029	0.4688235527119097	-0.01275	1.0554598762955323	0.2787357270631245	0.0702	1.1504851564588	0.14179149316974637	0.1076
86	2.8710566615620214	1.2924882162134086	0.31060210947675093	0.0301	1.3421517093850157	0.3690705742486664	0.0301	1.5489609127683368	0.18366284204624814	0.129	1.739079093482262	-0.04939107420611063	0.023	1.7947581598217677	-0.0888688969436606	0.2179	1.816265187220791	-0.08017017050693767	0.1804	1.7649055393492465	-0.0865828489378071	-0.0119	1.2395371360230418	0.26494439663300856	0.0301	1.4296260345035823	0.04737666453289098	0.129	1.5969936514017706	-0.14002167334839113	0.023	1.5557443562918198	-0.16983183744849178	0.2179	1.5583668851160917	-0.1962573862962348	0.1804	1.635907737679488	-0.16886381024769298	-0.0119	1.025653458988174	0.5788285890395383	0.0008	0.9136481251277007	0.6700892046014796	0.0655	0.9572654997982274	0.596658928106367	0.1076	1.138124427304838	0.6360097089959507	-0.01275	1.3312394985808065	0.5807165253150162	0.0702	1.4474138727663617	0.4752890655640952	0.1076	0.9728598247311286	0.467271602163132	-0.01275	1.0538351674052588	0.2757809574754189	0.0702	1.1498056266576349	0.14358939663605383	0.1076
87	2.904441041347626	1.2864922657319433	0.311292438064068	0.0301	1.333213101688203	0.37022864976737563	0.0301	1.538928477349775	0.19135731432909067	0.129	1.7175947997871135	-0.04024412220616182	0.023	1.771578121882005	-0.08302499998167535	0.2179	1.7935112037691272	-0.07234756012696573	0.1804	1.7426082940405567	-0.08270110798551447	-0.0119	1.2337088987648681	0.2670746790075718	0.0301	1.427482732111825	0.04910447171132642	0.129	1.595976163358088	-0.13951132912665318	0.023	1.5575002171265173	-0.16980852385511888	0.2179	1.5575472776579606	-0.19509657735068245	0.1804	1.6357348579988196	-0.16969317872686543	-0.0119	1.0164224354007199	0.5773157720641652	0.0008	0.9077262890080733	0.6693694574803832	0.0655	0.9539049320857179	0.5992112803353096	0.1076	1.126777911056557	0.6340200588636494	-0.01275	1.3183579789545912	0.5785403293022113	0.0702	1.4418705207713298	0.47367841782211373	0.1076	0.9657376604738631	0.4665311424469959	-0.01275	1.0488692575312828	0.27444740459449557	0.0702	1.1466538567794033	0.1499487115324901	0.1076
